<?xml version="1.0" encoding="UTF-8" standalone="no"?>
<!DOCTYPE svg PUBLIC "-//W3C//DTD SVG 1.1//EN" "http://www.w3.org/Graphics/SVG/1.1/DTD/svg11.dtd">
<!-- Generated by graphviz version 2.40.1 (20161225.0304)
 -->
<!-- Title: BinaryTree Pages: 1 -->
<svg width="3543pt" height="532pt" viewBox="0.00 0.00 3543.01 532.38" xmlns="http://www.w3.org/2000/svg" xmlns:xlink="http://www.w3.org/1999/xlink">
<g id="graph0" class="graph" transform="scale(1 1) rotate(0) translate(4 528.3801)">
<title>BinaryTree</title>
<polygon fill="#ffffff" stroke="transparent" points="-4,4 -4,-528.3801 3539.0054,-528.3801 3539.0054,4 -4,4"/>
<!-- Node_0 -->
<g id="node1" class="node">
<title>Node_0</title>
<polygon fill="none" stroke="#000000" points="232.6056,-490.7801 74.6477,-490.7801 70.6477,-486.7801 70.6477,-398.7801 228.6056,-398.7801 232.6056,-402.7801 232.6056,-490.7801"/>
<polyline fill="none" stroke="#000000" points="228.6056,-486.7801 70.6477,-486.7801 "/>
<polyline fill="none" stroke="#000000" points="228.6056,-486.7801 228.6056,-398.7801 "/>
<polyline fill="none" stroke="#000000" points="228.6056,-486.7801 232.6056,-490.7801 "/>
<text text-anchor="start" x="78.8875" y="-474.1801" font-family="Helvetica,sans-Serif" font-size="14.00" fill="#000000">Milestone: 0  </text>
<text text-anchor="start" x="78.8875" y="-457.3801" font-family="Helvetica,sans-Serif" font-size="14.00" fill="#000000"> Accepted Commands: </text>
<text text-anchor="start" x="78.8875" y="-440.5801" font-family="Helvetica,sans-Serif" font-size="14.00" fill="#000000"> pwd </text>
<text text-anchor="start" x="78.8875" y="-423.7801" font-family="Helvetica,sans-Serif" font-size="14.00" fill="#000000"> Accepted Options: </text>
<text text-anchor="start" x="78.8875" y="-406.9801" font-family="Helvetica,sans-Serif" font-size="14.00" fill="#000000"> N/A </text>
</g>
<!-- Node_1 -->
<g id="node2" class="node">
<title>Node_1</title>
<polygon fill="none" stroke="#000000" points="411.6056,-490.7801 253.6477,-490.7801 249.6477,-486.7801 249.6477,-398.7801 407.6056,-398.7801 411.6056,-402.7801 411.6056,-490.7801"/>
<polyline fill="none" stroke="#000000" points="407.6056,-486.7801 249.6477,-486.7801 "/>
<polyline fill="none" stroke="#000000" points="407.6056,-486.7801 407.6056,-398.7801 "/>
<polyline fill="none" stroke="#000000" points="407.6056,-486.7801 411.6056,-490.7801 "/>
<text text-anchor="start" x="257.8875" y="-474.1801" font-family="Helvetica,sans-Serif" font-size="14.00" fill="#000000">Milestone: 1  </text>
<text text-anchor="start" x="257.8875" y="-457.3801" font-family="Helvetica,sans-Serif" font-size="14.00" fill="#000000"> Accepted Commands: </text>
<text text-anchor="start" x="257.8875" y="-440.5801" font-family="Helvetica,sans-Serif" font-size="14.00" fill="#000000"> man </text>
<text text-anchor="start" x="257.8875" y="-423.7801" font-family="Helvetica,sans-Serif" font-size="14.00" fill="#000000"> Accepted Options: </text>
<text text-anchor="start" x="257.8875" y="-406.9801" font-family="Helvetica,sans-Serif" font-size="14.00" fill="#000000"> pwd </text>
</g>
<!-- Node_0&#45;&gt;Node_1 -->
<!-- Node_0&#45;&gt;Node_1 -->
<g id="edge18" class="edge">
<title>Node_0-&gt;Node_1</title>
<path fill="none" stroke="#000000" d="M232.3864,-478.9511C234.7249,-479.1272 237.0634,-479.2326 239.4019,-479.2673"/>
<polygon fill="#000000" stroke="#000000" points="239.762,-482.7584 249.6552,-478.9669 239.5569,-475.7614 239.762,-482.7584"/>
</g>
<!-- Node_16 -->
<g id="node18" class="node">
<title>Node_16</title>
<polygon fill="#00ff00" stroke="#00ff00" points="208.0957,-329.1801 25.1576,-329.1801 25.1576,-237.1801 208.0957,-237.1801 208.0957,-329.1801"/>
<text text-anchor="start" x="33.3924" y="-312.5801" font-family="Helvetica,sans-Serif" font-size="14.00" fill="#000000">Milestone Completed: M0  </text>
<text text-anchor="start" x="33.3924" y="-295.7801" font-family="Helvetica,sans-Serif" font-size="14.00" fill="#000000"> Command used: </text>
<text text-anchor="start" x="33.3924" y="-278.9801" font-family="Helvetica,sans-Serif" font-size="14.00" fill="#000000"> pwd </text>
<text text-anchor="start" x="33.3924" y="-262.1801" font-family="Helvetica,sans-Serif" font-size="14.00" fill="#000000"> TTY entry: </text>
<text text-anchor="start" x="33.3924" y="-245.3801" font-family="Helvetica,sans-Serif" font-size="14.00" fill="#000000"> ENTRY# 16 </text>
</g>
<!-- Node_0&#45;&gt;Node_16 -->
<g id="edge16" class="edge">
<title>Node_0-&gt;Node_16</title>
<path fill="none" stroke="#000000" d="M141.5971,-398.4721C137.5891,-379.9667 132.9375,-358.4897 128.7431,-339.1234"/>
<polygon fill="#000000" stroke="#000000" points="132.1347,-338.2479 126.5972,-329.2154 125.2933,-339.7297 132.1347,-338.2479"/>
</g>
<!-- Node_2 -->
<g id="node3" class="node">
<title>Node_2</title>
<polygon fill="none" stroke="#000000" points="595.6056,-490.7801 437.6477,-490.7801 433.6477,-486.7801 433.6477,-398.7801 591.6056,-398.7801 595.6056,-402.7801 595.6056,-490.7801"/>
<polyline fill="none" stroke="#000000" points="591.6056,-486.7801 433.6477,-486.7801 "/>
<polyline fill="none" stroke="#000000" points="591.6056,-486.7801 591.6056,-398.7801 "/>
<polyline fill="none" stroke="#000000" points="591.6056,-486.7801 595.6056,-490.7801 "/>
<text text-anchor="start" x="441.8875" y="-474.1801" font-family="Helvetica,sans-Serif" font-size="14.00" fill="#000000">Milestone: 2  </text>
<text text-anchor="start" x="441.8875" y="-457.3801" font-family="Helvetica,sans-Serif" font-size="14.00" fill="#000000"> Accepted Commands: </text>
<text text-anchor="start" x="441.8875" y="-440.5801" font-family="Helvetica,sans-Serif" font-size="14.00" fill="#000000"> ls </text>
<text text-anchor="start" x="441.8875" y="-423.7801" font-family="Helvetica,sans-Serif" font-size="14.00" fill="#000000"> Accepted Options: </text>
<text text-anchor="start" x="441.8875" y="-406.9801" font-family="Helvetica,sans-Serif" font-size="14.00" fill="#000000"> N/A </text>
</g>
<!-- Node_1&#45;&gt;Node_2 -->
<!-- Node_1&#45;&gt;Node_2 -->
<g id="edge21" class="edge">
<title>Node_1-&gt;Node_2</title>
<path fill="none" stroke="#000000" d="M411.486,-478.7742C415.5254,-479.1411 419.5649,-479.3084 423.6043,-479.2762"/>
<polygon fill="#000000" stroke="#000000" points="423.828,-482.7696 433.6451,-478.7853 423.4861,-475.7779 423.828,-482.7696"/>
</g>
<!-- Node_18 -->
<g id="node20" class="node">
<title>Node_18</title>
<polygon fill="#ffff00" stroke="#ffff00" points="410.9485,-320.8804 240.3048,-320.8804 240.3048,-245.4799 410.9485,-245.4799 410.9485,-320.8804"/>
<text text-anchor="start" x="248.2157" y="-304.1801" font-family="Helvetica,sans-Serif" font-size="14.00" fill="#000000">Milestone attempted: A1 </text>
<text text-anchor="start" x="248.2157" y="-287.3801" font-family="Helvetica,sans-Serif" font-size="14.00" fill="#000000"> Command used: </text>
<text text-anchor="start" x="248.2157" y="-270.5801" font-family="Helvetica,sans-Serif" font-size="14.00" fill="#000000"> man cd </text>
<text text-anchor="start" x="248.2157" y="-253.7801" font-family="Helvetica,sans-Serif" font-size="14.00" fill="#000000"> ENTRY# 18 </text>
</g>
<!-- Node_1&#45;&gt;Node_18 -->
<g id="edge19" class="edge">
<title>Node_1-&gt;Node_18</title>
<path fill="none" stroke="#000000" d="M329.1939,-398.4721C328.5392,-377.3122 327.7642,-352.2672 327.1042,-330.9349"/>
<polygon fill="#000000" stroke="#000000" points="330.5981,-330.6811 326.7905,-320.7942 323.6015,-330.8977 330.5981,-330.6811"/>
</g>
<!-- Node_3 -->
<g id="node4" class="node">
<title>Node_3</title>
<polygon fill="none" stroke="#000000" points="801.6056,-490.7801 643.6477,-490.7801 639.6477,-486.7801 639.6477,-398.7801 797.6056,-398.7801 801.6056,-402.7801 801.6056,-490.7801"/>
<polyline fill="none" stroke="#000000" points="797.6056,-486.7801 639.6477,-486.7801 "/>
<polyline fill="none" stroke="#000000" points="797.6056,-486.7801 797.6056,-398.7801 "/>
<polyline fill="none" stroke="#000000" points="797.6056,-486.7801 801.6056,-490.7801 "/>
<text text-anchor="start" x="647.8875" y="-474.1801" font-family="Helvetica,sans-Serif" font-size="14.00" fill="#000000">Milestone: 3  </text>
<text text-anchor="start" x="647.8875" y="-457.3801" font-family="Helvetica,sans-Serif" font-size="14.00" fill="#000000"> Accepted Commands: </text>
<text text-anchor="start" x="647.8875" y="-440.5801" font-family="Helvetica,sans-Serif" font-size="14.00" fill="#000000"> man </text>
<text text-anchor="start" x="647.8875" y="-423.7801" font-family="Helvetica,sans-Serif" font-size="14.00" fill="#000000"> Accepted Options: </text>
<text text-anchor="start" x="647.8875" y="-406.9801" font-family="Helvetica,sans-Serif" font-size="14.00" fill="#000000"> ls </text>
</g>
<!-- Node_2&#45;&gt;Node_3 -->
<!-- Node_2&#45;&gt;Node_3 -->
<g id="edge24" class="edge">
<title>Node_2-&gt;Node_3</title>
<path fill="none" stroke="#000000" d="M595.4977,-477.6877C606.8391,-479.32 618.1804,-479.6974 629.5217,-478.82"/>
<polygon fill="#000000" stroke="#000000" points="629.93,-482.2963 639.4884,-477.7259 629.1661,-475.3381 629.93,-482.2963"/>
</g>
<!-- Node_17 -->
<g id="node22" class="node">
<title>Node_17</title>
<polygon fill="#ffff00" stroke="#ffff00" points="599.9485,-320.8804 429.3048,-320.8804 429.3048,-245.4799 599.9485,-245.4799 599.9485,-320.8804"/>
<text text-anchor="start" x="437.2157" y="-304.1801" font-family="Helvetica,sans-Serif" font-size="14.00" fill="#000000">Milestone attempted: A2 </text>
<text text-anchor="start" x="437.2157" y="-287.3801" font-family="Helvetica,sans-Serif" font-size="14.00" fill="#000000"> Command used: </text>
<text text-anchor="start" x="437.2157" y="-270.5801" font-family="Helvetica,sans-Serif" font-size="14.00" fill="#000000"> pwd </text>
<text text-anchor="start" x="437.2157" y="-253.7801" font-family="Helvetica,sans-Serif" font-size="14.00" fill="#000000"> ENTRY# 17 </text>
</g>
<!-- Node_2&#45;&gt;Node_17 -->
<g id="edge22" class="edge">
<title>Node_2-&gt;Node_17</title>
<path fill="none" stroke="#000000" d="M514.6266,-398.4721C514.6266,-377.3122 514.6266,-352.2672 514.6266,-330.9349"/>
<polygon fill="#000000" stroke="#000000" points="518.1267,-330.7942 514.6266,-320.7942 511.1267,-330.7942 518.1267,-330.7942"/>
</g>
<!-- Node_4 -->
<g id="node5" class="node">
<title>Node_4</title>
<polygon fill="none" stroke="#000000" points="1024.6056,-490.7801 866.6477,-490.7801 862.6477,-486.7801 862.6477,-398.7801 1020.6056,-398.7801 1024.6056,-402.7801 1024.6056,-490.7801"/>
<polyline fill="none" stroke="#000000" points="1020.6056,-486.7801 862.6477,-486.7801 "/>
<polyline fill="none" stroke="#000000" points="1020.6056,-486.7801 1020.6056,-398.7801 "/>
<polyline fill="none" stroke="#000000" points="1020.6056,-486.7801 1024.6056,-490.7801 "/>
<text text-anchor="start" x="870.8875" y="-474.1801" font-family="Helvetica,sans-Serif" font-size="14.00" fill="#000000">Milestone: 4  </text>
<text text-anchor="start" x="870.8875" y="-457.3801" font-family="Helvetica,sans-Serif" font-size="14.00" fill="#000000"> Accepted Commands: </text>
<text text-anchor="start" x="870.8875" y="-440.5801" font-family="Helvetica,sans-Serif" font-size="14.00" fill="#000000"> ls </text>
<text text-anchor="start" x="870.8875" y="-423.7801" font-family="Helvetica,sans-Serif" font-size="14.00" fill="#000000"> Accepted Options: </text>
<text text-anchor="start" x="870.8875" y="-406.9801" font-family="Helvetica,sans-Serif" font-size="14.00" fill="#000000"> -l </text>
</g>
<!-- Node_3&#45;&gt;Node_4 -->
<!-- Node_3&#45;&gt;Node_4 -->
<g id="edge26" class="edge">
<title>Node_3-&gt;Node_4</title>
<path fill="none" stroke="#000000" d="M801.6384,-476.7006C818.6387,-479.5773 835.6391,-480.0479 852.6394,-478.1125"/>
<polygon fill="#000000" stroke="#000000" points="853.2386,-481.5626 862.649,-476.6949 852.2569,-474.6318 853.2386,-481.5626"/>
</g>
<!-- Node_22 -->
<g id="node23" class="node">
<title>Node_22</title>
<ellipse fill="#ff0000" stroke="#ff0000" cx="720.6266" cy="-283.1801" rx="102.7535" ry="41.0911"/>
<text text-anchor="start" x="656.0586" y="-295.7801" font-family="Helvetica,sans-Serif" font-size="14.00" fill="#000000">Milestone Report: 3  </text>
<text text-anchor="start" x="656.0586" y="-278.9801" font-family="Helvetica,sans-Serif" font-size="14.00" fill="#000000"> Times attempted: 0 </text>
<text text-anchor="start" x="656.0586" y="-262.1801" font-family="Helvetica,sans-Serif" font-size="14.00" fill="#000000"> Completed: No. </text>
</g>
<!-- Node_3&#45;&gt;Node_22 -->
<g id="edge25" class="edge">
<title>Node_3-&gt;Node_22</title>
<path fill="none" stroke="#000000" d="M720.6266,-398.4721C720.6266,-378.5254 720.6266,-355.1263 720.6266,-334.6393"/>
<polygon fill="#000000" stroke="#000000" points="724.1267,-334.5355 720.6266,-324.5355 717.1267,-334.5356 724.1267,-334.5355"/>
</g>
<!-- Node_5 -->
<g id="node6" class="node">
<title>Node_5</title>
<polygon fill="none" stroke="#000000" points="1247.6056,-490.7801 1089.6477,-490.7801 1085.6477,-486.7801 1085.6477,-398.7801 1243.6056,-398.7801 1247.6056,-402.7801 1247.6056,-490.7801"/>
<polyline fill="none" stroke="#000000" points="1243.6056,-486.7801 1085.6477,-486.7801 "/>
<polyline fill="none" stroke="#000000" points="1243.6056,-486.7801 1243.6056,-398.7801 "/>
<polyline fill="none" stroke="#000000" points="1243.6056,-486.7801 1247.6056,-490.7801 "/>
<text text-anchor="start" x="1093.8875" y="-474.1801" font-family="Helvetica,sans-Serif" font-size="14.00" fill="#000000">Milestone: 5  </text>
<text text-anchor="start" x="1093.8875" y="-457.3801" font-family="Helvetica,sans-Serif" font-size="14.00" fill="#000000"> Accepted Commands: </text>
<text text-anchor="start" x="1093.8875" y="-440.5801" font-family="Helvetica,sans-Serif" font-size="14.00" fill="#000000"> cd </text>
<text text-anchor="start" x="1093.8875" y="-423.7801" font-family="Helvetica,sans-Serif" font-size="14.00" fill="#000000"> Accepted Options: </text>
<text text-anchor="start" x="1093.8875" y="-406.9801" font-family="Helvetica,sans-Serif" font-size="14.00" fill="#000000"> view </text>
</g>
<!-- Node_4&#45;&gt;Node_5 -->
<!-- Node_4&#45;&gt;Node_5 -->
<g id="edge28" class="edge">
<title>Node_4-&gt;Node_5</title>
<path fill="none" stroke="#000000" d="M1024.6384,-476.7006C1041.6387,-479.5773 1058.6391,-480.0479 1075.6394,-478.1125"/>
<polygon fill="#000000" stroke="#000000" points="1076.2386,-481.5626 1085.649,-476.6949 1075.2569,-474.6318 1076.2386,-481.5626"/>
</g>
<!-- Node_23 -->
<g id="node24" class="node">
<title>Node_23</title>
<ellipse fill="#ff0000" stroke="#ff0000" cx="943.6266" cy="-283.1801" rx="102.7535" ry="41.0911"/>
<text text-anchor="start" x="879.0586" y="-295.7801" font-family="Helvetica,sans-Serif" font-size="14.00" fill="#000000">Milestone Report: 4  </text>
<text text-anchor="start" x="879.0586" y="-278.9801" font-family="Helvetica,sans-Serif" font-size="14.00" fill="#000000"> Times attempted: 0 </text>
<text text-anchor="start" x="879.0586" y="-262.1801" font-family="Helvetica,sans-Serif" font-size="14.00" fill="#000000"> Completed: No. </text>
</g>
<!-- Node_4&#45;&gt;Node_23 -->
<g id="edge27" class="edge">
<title>Node_4-&gt;Node_23</title>
<path fill="none" stroke="#000000" d="M943.6266,-398.4721C943.6266,-378.5254 943.6266,-355.1263 943.6266,-334.6393"/>
<polygon fill="#000000" stroke="#000000" points="947.1267,-334.5355 943.6266,-324.5355 940.1267,-334.5356 947.1267,-334.5355"/>
</g>
<!-- Node_6 -->
<g id="node7" class="node">
<title>Node_6</title>
<polygon fill="none" stroke="#000000" points="1470.6056,-524.4803 1312.6477,-524.4803 1308.6477,-520.4803 1308.6477,-365.08 1466.6056,-365.08 1470.6056,-369.08 1470.6056,-524.4803"/>
<polyline fill="none" stroke="#000000" points="1466.6056,-520.4803 1308.6477,-520.4803 "/>
<polyline fill="none" stroke="#000000" points="1466.6056,-520.4803 1466.6056,-365.08 "/>
<polyline fill="none" stroke="#000000" points="1466.6056,-520.4803 1470.6056,-524.4803 "/>
<text text-anchor="start" x="1316.8875" y="-507.7801" font-family="Helvetica,sans-Serif" font-size="14.00" fill="#000000">Milestone: 6  </text>
<text text-anchor="start" x="1316.8875" y="-490.9801" font-family="Helvetica,sans-Serif" font-size="14.00" fill="#000000"> Dir: </text>
<text text-anchor="start" x="1316.8875" y="-474.1801" font-family="Helvetica,sans-Serif" font-size="14.00" fill="#000000"> /home/$USER/view </text>
<text text-anchor="start" x="1316.8875" y="-457.3801" font-family="Helvetica,sans-Serif" font-size="14.00" fill="#000000"> Accepted Commands: </text>
<text text-anchor="start" x="1316.8875" y="-440.5801" font-family="Helvetica,sans-Serif" font-size="14.00" fill="#000000"> ls </text>
<text text-anchor="start" x="1316.8875" y="-423.7801" font-family="Helvetica,sans-Serif" font-size="14.00" fill="#000000"> Accepted Options: </text>
<text text-anchor="start" x="1316.8875" y="-406.9801" font-family="Helvetica,sans-Serif" font-size="14.00" fill="#000000"> -a </text>
<text text-anchor="start" x="1316.8875" y="-390.1801" font-family="Helvetica,sans-Serif" font-size="14.00" fill="#000000"> -la </text>
<text text-anchor="start" x="1316.8875" y="-373.3801" font-family="Helvetica,sans-Serif" font-size="14.00" fill="#000000"> -al </text>
</g>
<!-- Node_5&#45;&gt;Node_6 -->
<!-- Node_5&#45;&gt;Node_6 -->
<g id="edge30" class="edge">
<title>Node_5-&gt;Node_6</title>
<path fill="none" stroke="#000000" d="M1247.6384,-476.7006C1264.6387,-479.5773 1281.6391,-480.0479 1298.6394,-478.1125"/>
<polygon fill="#000000" stroke="#000000" points="1299.2386,-481.5626 1308.649,-476.6949 1298.2569,-474.6318 1299.2386,-481.5626"/>
</g>
<!-- Node_24 -->
<g id="node25" class="node">
<title>Node_24</title>
<ellipse fill="#ff0000" stroke="#ff0000" cx="1166.6266" cy="-283.1801" rx="102.7535" ry="41.0911"/>
<text text-anchor="start" x="1102.0586" y="-295.7801" font-family="Helvetica,sans-Serif" font-size="14.00" fill="#000000">Milestone Report: 5  </text>
<text text-anchor="start" x="1102.0586" y="-278.9801" font-family="Helvetica,sans-Serif" font-size="14.00" fill="#000000"> Times attempted: 0 </text>
<text text-anchor="start" x="1102.0586" y="-262.1801" font-family="Helvetica,sans-Serif" font-size="14.00" fill="#000000"> Completed: No. </text>
</g>
<!-- Node_5&#45;&gt;Node_24 -->
<g id="edge29" class="edge">
<title>Node_5-&gt;Node_24</title>
<path fill="none" stroke="#000000" d="M1166.6266,-398.4721C1166.6266,-378.5254 1166.6266,-355.1263 1166.6266,-334.6393"/>
<polygon fill="#000000" stroke="#000000" points="1170.1267,-334.5355 1166.6266,-324.5355 1163.1267,-334.5356 1170.1267,-334.5355"/>
</g>
<!-- Node_7 -->
<g id="node8" class="node">
<title>Node_7</title>
<polygon fill="none" stroke="#000000" points="1693.6056,-490.7801 1535.6477,-490.7801 1531.6477,-486.7801 1531.6477,-398.7801 1689.6056,-398.7801 1693.6056,-402.7801 1693.6056,-490.7801"/>
<polyline fill="none" stroke="#000000" points="1689.6056,-486.7801 1531.6477,-486.7801 "/>
<polyline fill="none" stroke="#000000" points="1689.6056,-486.7801 1689.6056,-398.7801 "/>
<polyline fill="none" stroke="#000000" points="1689.6056,-486.7801 1693.6056,-490.7801 "/>
<text text-anchor="start" x="1539.8875" y="-474.1801" font-family="Helvetica,sans-Serif" font-size="14.00" fill="#000000">Milestone: 7  </text>
<text text-anchor="start" x="1539.8875" y="-457.3801" font-family="Helvetica,sans-Serif" font-size="14.00" fill="#000000"> Accepted Commands: </text>
<text text-anchor="start" x="1539.8875" y="-440.5801" font-family="Helvetica,sans-Serif" font-size="14.00" fill="#000000"> cd </text>
<text text-anchor="start" x="1539.8875" y="-423.7801" font-family="Helvetica,sans-Serif" font-size="14.00" fill="#000000"> Accepted Options: </text>
<text text-anchor="start" x="1539.8875" y="-406.9801" font-family="Helvetica,sans-Serif" font-size="14.00" fill="#000000"> .. </text>
</g>
<!-- Node_6&#45;&gt;Node_7 -->
<!-- Node_6&#45;&gt;Node_7 -->
<g id="edge32" class="edge">
<title>Node_6-&gt;Node_7</title>
<path fill="none" stroke="#000000" d="M1470.6384,-500.0165C1495.5019,-507.2968 1520.3655,-505.6714 1545.229,-495.1401"/>
<polygon fill="#000000" stroke="#000000" points="1546.8129,-498.2633 1554.3893,-490.8572 1543.8481,-491.9221 1546.8129,-498.2633"/>
</g>
<!-- Node_25 -->
<g id="node26" class="node">
<title>Node_25</title>
<ellipse fill="#ff0000" stroke="#ff0000" cx="1389.6266" cy="-283.1801" rx="102.7535" ry="41.0911"/>
<text text-anchor="start" x="1325.0586" y="-295.7801" font-family="Helvetica,sans-Serif" font-size="14.00" fill="#000000">Milestone Report: 6  </text>
<text text-anchor="start" x="1325.0586" y="-278.9801" font-family="Helvetica,sans-Serif" font-size="14.00" fill="#000000"> Times attempted: 0 </text>
<text text-anchor="start" x="1325.0586" y="-262.1801" font-family="Helvetica,sans-Serif" font-size="14.00" fill="#000000"> Completed: No. </text>
</g>
<!-- Node_6&#45;&gt;Node_25 -->
<g id="edge31" class="edge">
<title>Node_6-&gt;Node_25</title>
<path fill="none" stroke="#000000" d="M1389.6266,-364.927C1389.6266,-354.6493 1389.6266,-344.3512 1389.6266,-334.6979"/>
<polygon fill="#000000" stroke="#000000" points="1393.1267,-334.5077 1389.6266,-324.5077 1386.1267,-334.5077 1393.1267,-334.5077"/>
</g>
<!-- Node_8 -->
<g id="node9" class="node">
<title>Node_8</title>
<polygon fill="none" stroke="#000000" points="1916.6056,-516.1807 1758.6477,-516.1807 1754.6477,-512.1807 1754.6477,-373.3796 1912.6056,-373.3796 1916.6056,-377.3796 1916.6056,-516.1807"/>
<polyline fill="none" stroke="#000000" points="1912.6056,-512.1807 1754.6477,-512.1807 "/>
<polyline fill="none" stroke="#000000" points="1912.6056,-512.1807 1912.6056,-373.3796 "/>
<polyline fill="none" stroke="#000000" points="1912.6056,-512.1807 1916.6056,-516.1807 "/>
<text text-anchor="start" x="1762.8875" y="-499.3801" font-family="Helvetica,sans-Serif" font-size="14.00" fill="#000000">Milestone: 8  </text>
<text text-anchor="start" x="1762.8875" y="-482.5801" font-family="Helvetica,sans-Serif" font-size="14.00" fill="#000000"> Dir: </text>
<text text-anchor="start" x="1762.8875" y="-465.7801" font-family="Helvetica,sans-Serif" font-size="14.00" fill="#000000"> /home/$USER </text>
<text text-anchor="start" x="1762.8875" y="-448.9801" font-family="Helvetica,sans-Serif" font-size="14.00" fill="#000000"> Accepted Commands: </text>
<text text-anchor="start" x="1762.8875" y="-432.1801" font-family="Helvetica,sans-Serif" font-size="14.00" fill="#000000"> ls </text>
<text text-anchor="start" x="1762.8875" y="-415.3801" font-family="Helvetica,sans-Serif" font-size="14.00" fill="#000000"> Accepted Options: </text>
<text text-anchor="start" x="1762.8875" y="-398.5801" font-family="Helvetica,sans-Serif" font-size="14.00" fill="#000000"> -la </text>
<text text-anchor="start" x="1762.8875" y="-381.7801" font-family="Helvetica,sans-Serif" font-size="14.00" fill="#000000"> -al </text>
</g>
<!-- Node_7&#45;&gt;Node_8 -->
<!-- Node_7&#45;&gt;Node_8 -->
<g id="edge34" class="edge">
<title>Node_7-&gt;Node_8</title>
<path fill="none" stroke="#000000" d="M1693.6384,-476.7006C1710.6387,-479.5773 1727.6391,-480.0479 1744.6394,-478.1125"/>
<polygon fill="#000000" stroke="#000000" points="1745.2386,-481.5626 1754.649,-476.6949 1744.2569,-474.6318 1745.2386,-481.5626"/>
</g>
<!-- Node_26 -->
<g id="node27" class="node">
<title>Node_26</title>
<ellipse fill="#ff0000" stroke="#ff0000" cx="1612.6266" cy="-283.1801" rx="102.7535" ry="41.0911"/>
<text text-anchor="start" x="1548.0586" y="-295.7801" font-family="Helvetica,sans-Serif" font-size="14.00" fill="#000000">Milestone Report: 7  </text>
<text text-anchor="start" x="1548.0586" y="-278.9801" font-family="Helvetica,sans-Serif" font-size="14.00" fill="#000000"> Times attempted: 0 </text>
<text text-anchor="start" x="1548.0586" y="-262.1801" font-family="Helvetica,sans-Serif" font-size="14.00" fill="#000000"> Completed: No. </text>
</g>
<!-- Node_7&#45;&gt;Node_26 -->
<g id="edge33" class="edge">
<title>Node_7-&gt;Node_26</title>
<path fill="none" stroke="#000000" d="M1612.6266,-398.4721C1612.6266,-378.5254 1612.6266,-355.1263 1612.6266,-334.6393"/>
<polygon fill="#000000" stroke="#000000" points="1616.1267,-334.5355 1612.6266,-324.5355 1609.1267,-334.5356 1616.1267,-334.5355"/>
</g>
<!-- Node_9 -->
<g id="node10" class="node">
<title>Node_9</title>
<polygon fill="none" stroke="#000000" points="2139.6056,-499.0803 1981.6477,-499.0803 1977.6477,-495.0803 1977.6477,-390.48 2135.6056,-390.48 2139.6056,-394.48 2139.6056,-499.0803"/>
<polyline fill="none" stroke="#000000" points="2135.6056,-495.0803 1977.6477,-495.0803 "/>
<polyline fill="none" stroke="#000000" points="2135.6056,-495.0803 2135.6056,-390.48 "/>
<polyline fill="none" stroke="#000000" points="2135.6056,-495.0803 2139.6056,-499.0803 "/>
<text text-anchor="start" x="1985.8875" y="-482.5801" font-family="Helvetica,sans-Serif" font-size="14.00" fill="#000000">Milestone: 9  </text>
<text text-anchor="start" x="1985.8875" y="-465.7801" font-family="Helvetica,sans-Serif" font-size="14.00" fill="#000000"> Accepted Commands: </text>
<text text-anchor="start" x="1985.8875" y="-448.9801" font-family="Helvetica,sans-Serif" font-size="14.00" fill="#000000"> mv </text>
<text text-anchor="start" x="1985.8875" y="-432.1801" font-family="Helvetica,sans-Serif" font-size="14.00" fill="#000000"> Accepted Options: </text>
<text text-anchor="start" x="1985.8875" y="-415.3801" font-family="Helvetica,sans-Serif" font-size="14.00" fill="#000000"> file1.txt </text>
<text text-anchor="start" x="1985.8875" y="-398.5801" font-family="Helvetica,sans-Serif" font-size="14.00" fill="#000000"> renamed_file1.txt </text>
</g>
<!-- Node_8&#45;&gt;Node_9 -->
<!-- Node_8&#45;&gt;Node_9 -->
<g id="edge36" class="edge">
<title>Node_8-&gt;Node_9</title>
<path fill="none" stroke="#000000" d="M1916.6384,-494.1875C1933.6387,-498.6401 1950.6391,-499.3685 1967.6394,-496.3728"/>
<polygon fill="#000000" stroke="#000000" points="1968.6304,-499.7388 1977.649,-494.1786 1967.1314,-492.9011 1968.6304,-499.7388"/>
</g>
<!-- Node_27 -->
<g id="node28" class="node">
<title>Node_27</title>
<ellipse fill="#ff0000" stroke="#ff0000" cx="1835.6266" cy="-283.1801" rx="102.7535" ry="41.0911"/>
<text text-anchor="start" x="1771.0586" y="-295.7801" font-family="Helvetica,sans-Serif" font-size="14.00" fill="#000000">Milestone Report: 8  </text>
<text text-anchor="start" x="1771.0586" y="-278.9801" font-family="Helvetica,sans-Serif" font-size="14.00" fill="#000000"> Times attempted: 0 </text>
<text text-anchor="start" x="1771.0586" y="-262.1801" font-family="Helvetica,sans-Serif" font-size="14.00" fill="#000000"> Completed: No. </text>
</g>
<!-- Node_8&#45;&gt;Node_27 -->
<g id="edge35" class="edge">
<title>Node_8-&gt;Node_27</title>
<path fill="none" stroke="#000000" d="M1835.6266,-373.4296C1835.6266,-360.3506 1835.6266,-346.9366 1835.6266,-334.584"/>
<polygon fill="#000000" stroke="#000000" points="1839.1267,-334.488 1835.6266,-324.4881 1832.1267,-334.4881 1839.1267,-334.488"/>
</g>
<!-- Node_10 -->
<g id="node11" class="node">
<title>Node_10</title>
<polygon fill="none" stroke="#000000" points="2365.6056,-499.0803 2207.6477,-499.0803 2203.6477,-495.0803 2203.6477,-390.48 2361.6056,-390.48 2365.6056,-394.48 2365.6056,-499.0803"/>
<polyline fill="none" stroke="#000000" points="2361.6056,-495.0803 2203.6477,-495.0803 "/>
<polyline fill="none" stroke="#000000" points="2361.6056,-495.0803 2361.6056,-390.48 "/>
<polyline fill="none" stroke="#000000" points="2361.6056,-495.0803 2365.6056,-499.0803 "/>
<text text-anchor="start" x="2211.8875" y="-482.5801" font-family="Helvetica,sans-Serif" font-size="14.00" fill="#000000">Milestone: 10 </text>
<text text-anchor="start" x="2211.8875" y="-465.7801" font-family="Helvetica,sans-Serif" font-size="14.00" fill="#000000"> Accepted Commands: </text>
<text text-anchor="start" x="2211.8875" y="-448.9801" font-family="Helvetica,sans-Serif" font-size="14.00" fill="#000000"> cp </text>
<text text-anchor="start" x="2211.8875" y="-432.1801" font-family="Helvetica,sans-Serif" font-size="14.00" fill="#000000"> Accepted Options: </text>
<text text-anchor="start" x="2211.8875" y="-415.3801" font-family="Helvetica,sans-Serif" font-size="14.00" fill="#000000"> file2.txt </text>
<text text-anchor="start" x="2211.8875" y="-398.5801" font-family="Helvetica,sans-Serif" font-size="14.00" fill="#000000"> copied_file2.txt </text>
</g>
<!-- Node_9&#45;&gt;Node_10 -->
<!-- Node_9&#45;&gt;Node_10 -->
<g id="edge38" class="edge">
<title>Node_9-&gt;Node_10</title>
<path fill="none" stroke="#000000" d="M2139.404,-482.2625C2157.5125,-485.9914 2175.621,-486.5769 2193.7295,-484.0192"/>
<polygon fill="#000000" stroke="#000000" points="2194.5348,-487.4318 2203.7898,-482.2748 2193.3389,-480.5347 2194.5348,-487.4318"/>
</g>
<!-- Node_28 -->
<g id="node29" class="node">
<title>Node_28</title>
<ellipse fill="#ff0000" stroke="#ff0000" cx="2058.6266" cy="-283.1801" rx="102.7535" ry="41.0911"/>
<text text-anchor="start" x="1994.0586" y="-295.7801" font-family="Helvetica,sans-Serif" font-size="14.00" fill="#000000">Milestone Report: 9  </text>
<text text-anchor="start" x="1994.0586" y="-278.9801" font-family="Helvetica,sans-Serif" font-size="14.00" fill="#000000"> Times attempted: 0 </text>
<text text-anchor="start" x="1994.0586" y="-262.1801" font-family="Helvetica,sans-Serif" font-size="14.00" fill="#000000"> Completed: No. </text>
</g>
<!-- Node_9&#45;&gt;Node_28 -->
<g id="edge37" class="edge">
<title>Node_9-&gt;Node_28</title>
<path fill="none" stroke="#000000" d="M2058.6266,-390.0698C2058.6266,-372.1587 2058.6266,-352.3317 2058.6266,-334.667"/>
<polygon fill="#000000" stroke="#000000" points="2062.1267,-334.547 2058.6266,-324.547 2055.1267,-334.547 2062.1267,-334.547"/>
</g>
<!-- Node_11 -->
<g id="node12" class="node">
<title>Node_11</title>
<polygon fill="none" stroke="#000000" points="2594.6056,-499.0803 2436.6477,-499.0803 2432.6477,-495.0803 2432.6477,-390.48 2590.6056,-390.48 2594.6056,-394.48 2594.6056,-499.0803"/>
<polyline fill="none" stroke="#000000" points="2590.6056,-495.0803 2432.6477,-495.0803 "/>
<polyline fill="none" stroke="#000000" points="2590.6056,-495.0803 2590.6056,-390.48 "/>
<polyline fill="none" stroke="#000000" points="2590.6056,-495.0803 2594.6056,-499.0803 "/>
<text text-anchor="start" x="2440.8875" y="-482.5801" font-family="Helvetica,sans-Serif" font-size="14.00" fill="#000000">Milestone: 11 </text>
<text text-anchor="start" x="2440.8875" y="-465.7801" font-family="Helvetica,sans-Serif" font-size="14.00" fill="#000000"> Accepted Commands: </text>
<text text-anchor="start" x="2440.8875" y="-448.9801" font-family="Helvetica,sans-Serif" font-size="14.00" fill="#000000"> cp </text>
<text text-anchor="start" x="2440.8875" y="-432.1801" font-family="Helvetica,sans-Serif" font-size="14.00" fill="#000000"> Accepted Options: </text>
<text text-anchor="start" x="2440.8875" y="-415.3801" font-family="Helvetica,sans-Serif" font-size="14.00" fill="#000000"> perm1.txt </text>
<text text-anchor="start" x="2440.8875" y="-398.5801" font-family="Helvetica,sans-Serif" font-size="14.00" fill="#000000"> copied_perm1.txt </text>
</g>
<!-- Node_10&#45;&gt;Node_11 -->
<!-- Node_10&#45;&gt;Node_11 -->
<g id="edge40" class="edge">
<title>Node_10-&gt;Node_11</title>
<path fill="none" stroke="#000000" d="M2365.5817,-482.0783C2384.6235,-486.0539 2403.6652,-486.6444 2422.707,-483.8497"/>
<polygon fill="#000000" stroke="#000000" points="2423.4315,-487.2759 2432.6646,-482.0797 2422.2063,-480.3839 2423.4315,-487.2759"/>
</g>
<!-- Node_29 -->
<g id="node30" class="node">
<title>Node_29</title>
<ellipse fill="#ff0000" stroke="#ff0000" cx="2284.6266" cy="-283.1801" rx="105.2576" ry="41.0911"/>
<text text-anchor="start" x="2218.1126" y="-295.7801" font-family="Helvetica,sans-Serif" font-size="14.00" fill="#000000">Milestone Report: 10 </text>
<text text-anchor="start" x="2218.1126" y="-278.9801" font-family="Helvetica,sans-Serif" font-size="14.00" fill="#000000"> Times attempted: 0 </text>
<text text-anchor="start" x="2218.1126" y="-262.1801" font-family="Helvetica,sans-Serif" font-size="14.00" fill="#000000"> Completed: No. </text>
</g>
<!-- Node_10&#45;&gt;Node_29 -->
<g id="edge39" class="edge">
<title>Node_10-&gt;Node_29</title>
<path fill="none" stroke="#000000" d="M2284.6266,-390.0698C2284.6266,-372.1587 2284.6266,-352.3317 2284.6266,-334.667"/>
<polygon fill="#000000" stroke="#000000" points="2288.1267,-334.547 2284.6266,-324.547 2281.1267,-334.547 2288.1267,-334.547"/>
</g>
<!-- Node_12 -->
<g id="node13" class="node">
<title>Node_12</title>
<polygon fill="none" stroke="#000000" points="2823.6056,-490.7801 2665.6477,-490.7801 2661.6477,-486.7801 2661.6477,-398.7801 2819.6056,-398.7801 2823.6056,-402.7801 2823.6056,-490.7801"/>
<polyline fill="none" stroke="#000000" points="2819.6056,-486.7801 2661.6477,-486.7801 "/>
<polyline fill="none" stroke="#000000" points="2819.6056,-486.7801 2819.6056,-398.7801 "/>
<polyline fill="none" stroke="#000000" points="2819.6056,-486.7801 2823.6056,-490.7801 "/>
<text text-anchor="start" x="2669.8875" y="-474.1801" font-family="Helvetica,sans-Serif" font-size="14.00" fill="#000000">Milestone: 12 </text>
<text text-anchor="start" x="2669.8875" y="-457.3801" font-family="Helvetica,sans-Serif" font-size="14.00" fill="#000000"> Accepted Commands: </text>
<text text-anchor="start" x="2669.8875" y="-440.5801" font-family="Helvetica,sans-Serif" font-size="14.00" fill="#000000"> man </text>
<text text-anchor="start" x="2669.8875" y="-423.7801" font-family="Helvetica,sans-Serif" font-size="14.00" fill="#000000"> Accepted Options: </text>
<text text-anchor="start" x="2669.8875" y="-406.9801" font-family="Helvetica,sans-Serif" font-size="14.00" fill="#000000"> chmod </text>
</g>
<!-- Node_11&#45;&gt;Node_12 -->
<!-- Node_11&#45;&gt;Node_12 -->
<g id="edge42" class="edge">
<title>Node_11-&gt;Node_12</title>
<path fill="none" stroke="#000000" d="M2594.5817,-482.0783C2613.6235,-486.0539 2632.6652,-486.6444 2651.707,-483.8497"/>
<polygon fill="#000000" stroke="#000000" points="2652.4315,-487.2759 2661.6646,-482.0797 2651.2063,-480.3839 2652.4315,-487.2759"/>
</g>
<!-- Node_30 -->
<g id="node31" class="node">
<title>Node_30</title>
<ellipse fill="#ff0000" stroke="#ff0000" cx="2513.6266" cy="-283.1801" rx="105.2576" ry="41.0911"/>
<text text-anchor="start" x="2447.1126" y="-295.7801" font-family="Helvetica,sans-Serif" font-size="14.00" fill="#000000">Milestone Report: 11 </text>
<text text-anchor="start" x="2447.1126" y="-278.9801" font-family="Helvetica,sans-Serif" font-size="14.00" fill="#000000"> Times attempted: 0 </text>
<text text-anchor="start" x="2447.1126" y="-262.1801" font-family="Helvetica,sans-Serif" font-size="14.00" fill="#000000"> Completed: No. </text>
</g>
<!-- Node_11&#45;&gt;Node_30 -->
<g id="edge41" class="edge">
<title>Node_11-&gt;Node_30</title>
<path fill="none" stroke="#000000" d="M2513.6266,-390.0698C2513.6266,-372.1587 2513.6266,-352.3317 2513.6266,-334.667"/>
<polygon fill="#000000" stroke="#000000" points="2517.1267,-334.547 2513.6266,-324.547 2510.1267,-334.547 2517.1267,-334.547"/>
</g>
<!-- Node_13 -->
<g id="node14" class="node">
<title>Node_13</title>
<polygon fill="none" stroke="#000000" points="3052.6056,-490.7801 2894.6477,-490.7801 2890.6477,-486.7801 2890.6477,-398.7801 3048.6056,-398.7801 3052.6056,-402.7801 3052.6056,-490.7801"/>
<polyline fill="none" stroke="#000000" points="3048.6056,-486.7801 2890.6477,-486.7801 "/>
<polyline fill="none" stroke="#000000" points="3048.6056,-486.7801 3048.6056,-398.7801 "/>
<polyline fill="none" stroke="#000000" points="3048.6056,-486.7801 3052.6056,-490.7801 "/>
<text text-anchor="start" x="2898.8875" y="-474.1801" font-family="Helvetica,sans-Serif" font-size="14.00" fill="#000000">Milestone: 13 </text>
<text text-anchor="start" x="2898.8875" y="-457.3801" font-family="Helvetica,sans-Serif" font-size="14.00" fill="#000000"> Accepted Commands: </text>
<text text-anchor="start" x="2898.8875" y="-440.5801" font-family="Helvetica,sans-Serif" font-size="14.00" fill="#000000"> chmod </text>
<text text-anchor="start" x="2898.8875" y="-423.7801" font-family="Helvetica,sans-Serif" font-size="14.00" fill="#000000"> Accepted Options: </text>
<text text-anchor="start" x="2898.8875" y="-406.9801" font-family="Helvetica,sans-Serif" font-size="14.00" fill="#000000"> copied_perm1.txt 660 </text>
</g>
<!-- Node_12&#45;&gt;Node_13 -->
<!-- Node_12&#45;&gt;Node_13 -->
<g id="edge44" class="edge">
<title>Node_12-&gt;Node_13</title>
<path fill="none" stroke="#000000" d="M2823.5817,-476.319C2842.6235,-479.6808 2861.6652,-480.1801 2880.707,-477.8169"/>
<polygon fill="#000000" stroke="#000000" points="2881.2959,-481.2678 2890.6646,-476.3202 2880.2554,-474.3456 2881.2959,-481.2678"/>
</g>
<!-- Node_31 -->
<g id="node32" class="node">
<title>Node_31</title>
<ellipse fill="#ff0000" stroke="#ff0000" cx="2742.6266" cy="-283.1801" rx="105.2576" ry="41.0911"/>
<text text-anchor="start" x="2676.1126" y="-295.7801" font-family="Helvetica,sans-Serif" font-size="14.00" fill="#000000">Milestone Report: 12 </text>
<text text-anchor="start" x="2676.1126" y="-278.9801" font-family="Helvetica,sans-Serif" font-size="14.00" fill="#000000"> Times attempted: 0 </text>
<text text-anchor="start" x="2676.1126" y="-262.1801" font-family="Helvetica,sans-Serif" font-size="14.00" fill="#000000"> Completed: No. </text>
</g>
<!-- Node_12&#45;&gt;Node_31 -->
<g id="edge43" class="edge">
<title>Node_12-&gt;Node_31</title>
<path fill="none" stroke="#000000" d="M2742.6266,-398.4721C2742.6266,-378.5254 2742.6266,-355.1263 2742.6266,-334.6393"/>
<polygon fill="#000000" stroke="#000000" points="2746.1267,-334.5355 2742.6266,-324.5355 2739.1267,-334.5356 2746.1267,-334.5355"/>
</g>
<!-- Node_14 -->
<g id="node15" class="node">
<title>Node_14</title>
<polygon fill="none" stroke="#000000" points="3256.6056,-499.0803 3098.6477,-499.0803 3094.6477,-495.0803 3094.6477,-390.48 3252.6056,-390.48 3256.6056,-394.48 3256.6056,-499.0803"/>
<polyline fill="none" stroke="#000000" points="3252.6056,-495.0803 3094.6477,-495.0803 "/>
<polyline fill="none" stroke="#000000" points="3252.6056,-495.0803 3252.6056,-390.48 "/>
<polyline fill="none" stroke="#000000" points="3252.6056,-495.0803 3256.6056,-499.0803 "/>
<text text-anchor="start" x="3102.8875" y="-482.5801" font-family="Helvetica,sans-Serif" font-size="14.00" fill="#000000">Milestone: 14 </text>
<text text-anchor="start" x="3102.8875" y="-465.7801" font-family="Helvetica,sans-Serif" font-size="14.00" fill="#000000"> Accepted Commands: </text>
<text text-anchor="start" x="3102.8875" y="-448.9801" font-family="Helvetica,sans-Serif" font-size="14.00" fill="#000000"> cp </text>
<text text-anchor="start" x="3102.8875" y="-432.1801" font-family="Helvetica,sans-Serif" font-size="14.00" fill="#000000"> Accepted Options: </text>
<text text-anchor="start" x="3102.8875" y="-415.3801" font-family="Helvetica,sans-Serif" font-size="14.00" fill="#000000"> perm2.txt </text>
<text text-anchor="start" x="3102.8875" y="-398.5801" font-family="Helvetica,sans-Serif" font-size="14.00" fill="#000000"> copied_perm2.txt </text>
</g>
<!-- Node_13&#45;&gt;Node_14 -->
<!-- Node_13&#45;&gt;Node_14 -->
<g id="edge46" class="edge">
<title>Node_13-&gt;Node_14</title>
<path fill="none" stroke="#000000" d="M3052.5095,-477.8014C3063.2001,-479.2986 3073.8907,-479.6589 3084.5812,-478.8822"/>
<polygon fill="#000000" stroke="#000000" points="3085.2585,-482.3299 3094.831,-477.7892 3084.5162,-475.3694 3085.2585,-482.3299"/>
</g>
<!-- Node_32 -->
<g id="node33" class="node">
<title>Node_32</title>
<ellipse fill="#ff0000" stroke="#ff0000" cx="2971.6266" cy="-283.1801" rx="105.2576" ry="41.0911"/>
<text text-anchor="start" x="2905.1126" y="-295.7801" font-family="Helvetica,sans-Serif" font-size="14.00" fill="#000000">Milestone Report: 13 </text>
<text text-anchor="start" x="2905.1126" y="-278.9801" font-family="Helvetica,sans-Serif" font-size="14.00" fill="#000000"> Times attempted: 0 </text>
<text text-anchor="start" x="2905.1126" y="-262.1801" font-family="Helvetica,sans-Serif" font-size="14.00" fill="#000000"> Completed: No. </text>
</g>
<!-- Node_13&#45;&gt;Node_32 -->
<g id="edge45" class="edge">
<title>Node_13-&gt;Node_32</title>
<path fill="none" stroke="#000000" d="M2971.6266,-398.4721C2971.6266,-378.5254 2971.6266,-355.1263 2971.6266,-334.6393"/>
<polygon fill="#000000" stroke="#000000" points="2975.1267,-334.5355 2971.6266,-324.5355 2968.1267,-334.5356 2975.1267,-334.5355"/>
</g>
<!-- Node_15 -->
<g id="node16" class="node">
<title>Node_15</title>
<polygon fill="none" stroke="#000000" points="3435.6056,-490.7801 3277.6477,-490.7801 3273.6477,-486.7801 3273.6477,-398.7801 3431.6056,-398.7801 3435.6056,-402.7801 3435.6056,-490.7801"/>
<polyline fill="none" stroke="#000000" points="3431.6056,-486.7801 3273.6477,-486.7801 "/>
<polyline fill="none" stroke="#000000" points="3431.6056,-486.7801 3431.6056,-398.7801 "/>
<polyline fill="none" stroke="#000000" points="3431.6056,-486.7801 3435.6056,-490.7801 "/>
<text text-anchor="start" x="3281.8875" y="-474.1801" font-family="Helvetica,sans-Serif" font-size="14.00" fill="#000000">Milestone: 15 </text>
<text text-anchor="start" x="3281.8875" y="-457.3801" font-family="Helvetica,sans-Serif" font-size="14.00" fill="#000000"> Accepted Commands: </text>
<text text-anchor="start" x="3281.8875" y="-440.5801" font-family="Helvetica,sans-Serif" font-size="14.00" fill="#000000"> chmod </text>
<text text-anchor="start" x="3281.8875" y="-423.7801" font-family="Helvetica,sans-Serif" font-size="14.00" fill="#000000"> Accepted Options: </text>
<text text-anchor="start" x="3281.8875" y="-406.9801" font-family="Helvetica,sans-Serif" font-size="14.00" fill="#000000"> copied_perm2.txt 764 </text>
</g>
<!-- Node_14&#45;&gt;Node_15 -->
<!-- Node_14&#45;&gt;Node_15 -->
<g id="edge48" class="edge">
<title>Node_14-&gt;Node_15</title>
<path fill="none" stroke="#000000" d="M3256.3864,-485.191C3258.7249,-485.3993 3261.0634,-485.5239 3263.4019,-485.565"/>
<polygon fill="#000000" stroke="#000000" points="3263.7825,-489.054 3273.6552,-485.2097 3263.54,-482.0582 3263.7825,-489.054"/>
</g>
<!-- Node_33 -->
<g id="node34" class="node">
<title>Node_33</title>
<ellipse fill="#ff0000" stroke="#ff0000" cx="3200.6266" cy="-283.1801" rx="105.2576" ry="41.0911"/>
<text text-anchor="start" x="3134.1126" y="-295.7801" font-family="Helvetica,sans-Serif" font-size="14.00" fill="#000000">Milestone Report: 14 </text>
<text text-anchor="start" x="3134.1126" y="-278.9801" font-family="Helvetica,sans-Serif" font-size="14.00" fill="#000000"> Times attempted: 0 </text>
<text text-anchor="start" x="3134.1126" y="-262.1801" font-family="Helvetica,sans-Serif" font-size="14.00" fill="#000000"> Completed: No. </text>
</g>
<!-- Node_14&#45;&gt;Node_33 -->
<g id="edge47" class="edge">
<title>Node_14-&gt;Node_33</title>
<path fill="none" stroke="#000000" d="M3184.0905,-390.0698C3186.8614,-372.1587 3189.9287,-352.3317 3192.6615,-334.667"/>
<polygon fill="#000000" stroke="#000000" points="3196.157,-334.9646 3194.2271,-324.547 3189.2393,-333.8943 3196.157,-334.9646"/>
</g>
<!-- Node_34 -->
<g id="node37" class="node">
<title>Node_34</title>
<ellipse fill="#ff0000" stroke="#ff0000" cx="3429.6266" cy="-283.1801" rx="105.2576" ry="41.0911"/>
<text text-anchor="start" x="3363.1126" y="-295.7801" font-family="Helvetica,sans-Serif" font-size="14.00" fill="#000000">Milestone Report: 15 </text>
<text text-anchor="start" x="3363.1126" y="-278.9801" font-family="Helvetica,sans-Serif" font-size="14.00" fill="#000000"> Times attempted: 0 </text>
<text text-anchor="start" x="3363.1126" y="-262.1801" font-family="Helvetica,sans-Serif" font-size="14.00" fill="#000000"> Completed: No. </text>
</g>
<!-- Node_15&#45;&gt;Node_34 -->
<g id="edge49" class="edge">
<title>Node_15-&gt;Node_34</title>
<path fill="none" stroke="#000000" d="M3376.1186,-398.4721C3385.578,-378.0904 3396.7102,-354.1041 3406.3641,-333.3032"/>
<polygon fill="#000000" stroke="#000000" points="3409.6492,-334.5387 3410.6843,-323.9945 3403.2997,-331.5918 3409.6492,-334.5387"/>
</g>
<!-- Node_19 -->
<g id="node17" class="node">
<title>Node_19</title>
<ellipse fill="#66cd00" stroke="#66cd00" cx="102.6266" cy="-159.8851" rx="102.7535" ry="41.0911"/>
<text text-anchor="start" x="38.0586" y="-172.4851" font-family="Helvetica,sans-Serif" font-size="14.00" fill="#000000">Milestone Report: 0  </text>
<text text-anchor="start" x="38.0586" y="-155.6851" font-family="Helvetica,sans-Serif" font-size="14.00" fill="#000000"> Times attempted: 0 </text>
<text text-anchor="start" x="38.0586" y="-138.8851" font-family="Helvetica,sans-Serif" font-size="14.00" fill="#000000"> Completed: Yes. </text>
</g>
<!-- Node_16&#45;&gt;Node_19 -->
<g id="edge17" class="edge">
<title>Node_16-&gt;Node_19</title>
<path fill="none" stroke="#000000" d="M111.3737,-236.9188C110.436,-228.6604 109.4536,-220.0084 108.4998,-211.6088"/>
<polygon fill="#000000" stroke="#000000" points="111.9616,-211.0731 107.3556,-201.5318 105.0063,-211.8629 111.9616,-211.0731"/>
</g>
<!-- Node_20 -->
<g id="node19" class="node">
<title>Node_20</title>
<ellipse fill="#ffa500" stroke="#ffa500" cx="325.6266" cy="-159.8851" rx="102.7535" ry="41.0911"/>
<text text-anchor="start" x="261.0586" y="-172.4851" font-family="Helvetica,sans-Serif" font-size="14.00" fill="#000000">Milestone Report: 1  </text>
<text text-anchor="start" x="261.0586" y="-155.6851" font-family="Helvetica,sans-Serif" font-size="14.00" fill="#000000"> Times attempted: 1 </text>
<text text-anchor="start" x="261.0586" y="-138.8851" font-family="Helvetica,sans-Serif" font-size="14.00" fill="#000000"> Completed: No. </text>
</g>
<!-- Node_18&#45;&gt;Node_20 -->
<g id="edge20" class="edge">
<title>Node_18-&gt;Node_20</title>
<path fill="none" stroke="#000000" d="M325.6266,-245.5176C325.6266,-234.7821 325.6266,-222.8968 325.6266,-211.4837"/>
<polygon fill="#000000" stroke="#000000" points="329.1267,-211.1816 325.6266,-201.1817 322.1267,-211.1817 329.1267,-211.1816"/>
</g>
<!-- Node_21 -->
<g id="node21" class="node">
<title>Node_21</title>
<ellipse fill="#ffa500" stroke="#ffa500" cx="548.6266" cy="-159.8851" rx="102.7535" ry="41.0911"/>
<text text-anchor="start" x="484.0586" y="-172.4851" font-family="Helvetica,sans-Serif" font-size="14.00" fill="#000000">Milestone Report: 2  </text>
<text text-anchor="start" x="484.0586" y="-155.6851" font-family="Helvetica,sans-Serif" font-size="14.00" fill="#000000"> Times attempted: 1 </text>
<text text-anchor="start" x="484.0586" y="-138.8851" font-family="Helvetica,sans-Serif" font-size="14.00" fill="#000000"> Completed: No. </text>
</g>
<!-- Node_17&#45;&gt;Node_21 -->
<g id="edge23" class="edge">
<title>Node_17-&gt;Node_21</title>
<path fill="none" stroke="#000000" d="M525.0125,-245.5176C528.0032,-234.6725 531.3174,-222.6541 534.494,-211.1345"/>
<polygon fill="#000000" stroke="#000000" points="537.9543,-211.7523 537.2387,-201.1817 531.2061,-209.8914 537.9543,-211.7523"/>
</g>
<!-- Node_36 -->
<g id="node35" class="node">
<title>Node_36</title>
<ellipse fill="#66cd00" stroke="#66cd00" cx="3429.6266" cy="-41.295" rx="105.2576" ry="41.0911"/>
<text text-anchor="start" x="3363.1126" y="-53.895" font-family="Helvetica,sans-Serif" font-size="14.00" fill="#000000">Milestone Report: 17 </text>
<text text-anchor="start" x="3363.1126" y="-37.095" font-family="Helvetica,sans-Serif" font-size="14.00" fill="#000000"> Times attempted: 2 </text>
<text text-anchor="start" x="3363.1126" y="-20.295" font-family="Helvetica,sans-Serif" font-size="14.00" fill="#000000"> Completed: Yes. </text>
</g>
<!-- Node_35 -->
<g id="node36" class="node">
<title>Node_35</title>
<ellipse fill="#66cd00" stroke="#66cd00" cx="3429.6266" cy="-159.8851" rx="105.2576" ry="41.0911"/>
<text text-anchor="start" x="3363.1126" y="-172.4851" font-family="Helvetica,sans-Serif" font-size="14.00" fill="#000000">Milestone Report: 16 </text>
<text text-anchor="start" x="3363.1126" y="-155.6851" font-family="Helvetica,sans-Serif" font-size="14.00" fill="#000000"> Times attempted: 1 </text>
<text text-anchor="start" x="3363.1126" y="-138.8851" font-family="Helvetica,sans-Serif" font-size="14.00" fill="#000000"> Completed: Yes. </text>
</g>
<!-- Node_35&#45;&gt;Node_36 -->
<g id="edge51" class="edge">
<title>Node_35-&gt;Node_36</title>
<path fill="none" stroke="#000000" d="M3429.6266,-118.4081C3429.6266,-110.2405 3429.6266,-101.5758 3429.6266,-93.1172"/>
<polygon fill="#000000" stroke="#000000" points="3433.1267,-92.9491 3429.6266,-82.9491 3426.1267,-92.9492 3433.1267,-92.9491"/>
</g>
<!-- Node_34&#45;&gt;Node_35 -->
<g id="edge50" class="edge">
<title>Node_34-&gt;Node_35</title>
<path fill="none" stroke="#000000" d="M3429.6266,-241.7817C3429.6266,-232.1242 3429.6266,-221.7209 3429.6266,-211.676"/>
<polygon fill="#000000" stroke="#000000" points="3433.1267,-211.3841 3429.6266,-201.3842 3426.1267,-211.3842 3433.1267,-211.3841"/>
</g>
</g>
</svg>