<?xml version="1.0" encoding="UTF-8" standalone="no" ?>
<!DOCTYPE svg PUBLIC "-//W3C//DTD SVG 1.1//EN" "http://www.w3.org/Graphics/SVG/1.1/DTD/svg11.dtd">
<svg xmlns="http://www.w3.org/2000/svg" xmlns:xlink="http://www.w3.org/1999/xlink" version="1.1" width="108" height="108" viewBox="0 0 1080 1080" xml:space="preserve">
<desc>Created with Fabric.js 5.2.4</desc>
<defs>
</defs>
<rect x="0" y="0" width="100%" height="100%" fill="transparent"></rect>
<g transform="matrix(1 0 0 1 540 540)" id="68d606b2-3e2b-4032-8336-3cd65572a1c1"  >
<rect style="stroke: none; stroke-width: 1; stroke-dasharray: none; stroke-linecap: butt; stroke-dashoffset: 0; stroke-linejoin: miter; stroke-miterlimit: 4; fill: rgb(255,255,255); fill-rule: nonzero; opacity: 1; visibility: hidden;" vector-effect="non-scaling-stroke"  x="-540" y="-540" rx="0" ry="0" width="108" height="108" />
</g>
<g transform="matrix(1 0 0 1 540 540)" id="271ac2b7-45cb-4e9b-ba1a-e25917b28ab2"  >
</g>
<g transform="matrix(1.43 0 0 1.43 540.86 540.97)" id="f0eafa80-4eab-4fb8-b6cf-9c1cf810e6ab"  >
<path style="stroke: rgb(0,0,0); stroke-width: 0; stroke-dasharray: none; stroke-linecap: butt; stroke-dashoffset: 0; stroke-linejoin: miter; stroke-miterlimit: 4; fill: rgb(0,0,0); fill-rule: nonzero; opacity: 1;" vector-effect="non-scaling-stroke"  transform=" translate(-603.92, -726.22)" d="M 499.74466 1022.6607 C 492.41848 1036.3064 486.59086 1050.189 486.00551 1064.6276 C 486.00551 1064.6276 488.81013 1078.0732 485.2561 1083.113 C 481.53123 1088.395 473.66512 1089.4188000000001 467.27031 1090.3572000000001 C 458.25261 1091.6806000000001 450.66263 1086.3127000000002 438.0434 1087.1098000000002 C 421.99170000000004 1088.1238 420.94127000000003 1092.2282000000002 412.31373 1093.6047 C 405.79229000000004 1094.6451000000002 396.59385000000003 1095.4487000000001 390.08129 1094.3541 C 384.86194 1093.4768 380.46144000000004 1093.5904 378.09077 1088.8584 C 375.87384000000003 1084.4334000000001 376.70827 1079.2335 380.08919000000003 1075.6189000000002 C 385.30856000000006 1070.0387 394.66920000000005 1069.0627000000002 403.32083 1067.8750000000002 C 413.58229 1066.4664000000002 422.93284 1060.6343000000002 431.54853 1054.8853000000001 C 451.30656000000005 1041.7012000000002 460.50495 1013.7288000000001 459.27663 1014.1674000000002 C 468.30528000000004 990.9449900000002 466.36951 962.2482100000002 469.26873 933.9808000000002 C 471.43895 912.8211900000001 482.74339 907.0619800000002 489.50275 902.5056600000001 C 495.58179 898.4079300000002 488.78565 880.3874700000001 490.70817 870.4260900000002 C 493.09076 858.0809700000002 504.2411 857.2913900000002 504.2411 857.2913900000002 C 504.70767 853.3045900000002 504.36783 849.1565100000003 507.98814000000004 845.8004600000002 C 506.0898 816.2655500000002 503.39515000000006 786.2185100000002 511.48538 762.3663800000002 C 514.18556 754.4055300000001 507.95654 756.4162400000001 505.73992000000004 757.6201300000001 C 471.64653000000004 776.1370100000001 459.81573000000003 754.8296100000001 453.28136000000006 745.1300000000001 C 450.6194300000001 741.1786300000001 449.5131200000001 741.4041600000002 446.03709000000003 741.1331500000001 C 436.70364000000006 742.3377900000002 429.97542000000004 742.4259100000002 425.30347000000006 741.6327600000001 C 423.73293000000007 744.38444 421.12849000000006 746.7914800000001 417.55958000000004 748.8770400000001 C 416.15274000000005 756.0380500000001 412.64292000000006 764.1131200000001 406.81807000000003 770.3600600000001 C 406.81807000000003 770.3600600000001 394.49510000000004 782.00174 389.58169000000004 788.8454600000001 C 386.10518 793.6877700000001 385.05777000000006 800.1357600000001 381.08840000000004 804.5830300000001 C 373.5208 813.0617300000001 364.28433 821.9934200000001 353.11050000000006 824.0676300000001 C 342.48740000000004 826.0396100000002 330.8343100000001 821.9910800000001 321.6353700000001 816.3237500000001 C 313.2384800000001 811.1505500000002 308.9107200000001 801.2501400000001 302.4005700000001 793.8415100000001 C 299.36509000000007 790.3870900000001 297.47418000000005 785.1859800000001 293.15787000000006 783.5996000000001 C 281.77939000000003 779.4176600000001 288.43189000000007 773.1649300000001 289.41083000000003 767.8620400000001 C 290.52576000000005 761.8225100000001 290.4069 758.1137900000001 289.16103000000004 752.62408 C 287.29526000000004 744.4029400000001 281.80242000000004 736.8226400000001 281.91675000000004 728.39322 C 282.00355 721.9952000000001 288.13349000000005 716.55241 287.91201 710.15763 C 287.82801 707.73144 285.32392 705.8353400000001 285.16418 703.41295 C 285.03395 701.43799 286.74825 699.6449 286.663 697.66749 C 286.37373 690.9579 280.28207000000003 685.38846 279.91833 678.68249 C 279.37138000000004 668.59891 283.52403000000004 658.71861 286.9128 649.20578 C 288.96235 643.45239 290.45843 636.90413 294.90649 632.71881 C 296.02139 631.66976 298.28623000000005 632.2319299999999 299.15313000000003 630.97019 C 301.13414000000006 628.08693 297.25061000000005 623.23622 299.40293 620.47848 C 300.94414 618.5037599999999 304.71946 620.07961 306.64721000000003 618.48005 C 309.857 615.8167100000001 308.91737 609.88322 312.14287 607.23894 C 313.40802 606.20177 315.67232 607.08341 316.88912 605.98992 C 318.28091 604.73919 317.66614 602.16166 318.88754 600.74407 C 319.88531 599.5860299999999 322.88438 598.4958399999999 322.88438 598.4958399999999 C 324.22921 592.58385 322.88038 586.67185 321.63537 580.7598599999999 C 315.43859000000003 584.5339099999999 313.1594 580.0130299999998 309.89465 577.0128199999999 C 307.21924 574.5541999999999 305.66764 572.8746399999999 303.89938 570.5179499999999 C 291.99307 554.64955 298.56381 549.7655399999999 302.40057 550.5337299999999 C 302.40057 550.5337299999999 288.09321 524.6026199999999 288.91122 510.5653099999999 C 289.4096 502.0129699999999 293.77557 493.3212499999999 299.90254 487.33366999999987 C 308.83344 478.6059499999999 321.63988 472.30381999999986 334.1255 472.09569999999985 C 349.40042 471.84108999999984 364.21711999999997 480.37376999999987 376.59195 489.3320899999999 C 381.42258 492.8290499999999 393.27108 516.3107899999999 391.82991 528.8008999999998 C 391.82991 528.8008999999998 391.78361 535.4507099999998 392.82912 538.5432099999998 C 393.79879999999997 541.4112699999998 397.57536999999996 546.2870899999998 397.57536999999996 546.2870899999998 C 397.57536999999996 546.2870899999998 410.02009 535.0417399999998 417.80938999999995 532.7977499999998 C 423.73254 531.0913699999999 430.77629999999994 536.0435999999999 436.29477999999995 533.2973499999998 C 438.8598799999999 532.0208399999998 438.71646999999996 527.5606099999998 441.29083999999995 526.3028799999998 C 452.0736999999999 521.0348299999998 466.47180999999995 533.0538299999998 477.26241999999996 527.8016899999999 C 480.2129 526.3655999999999 480.28472999999997 521.6388999999999 483.00787999999994 519.8080099999999 C 486.84595999999993 517.2275099999998 491.87317999999993 516.6503999999999 496.49721999999997 516.5605699999999 C 498.61974 516.5193699999999 500.74042999999995 518.5162199999999 502.74228999999997 517.8095899999998 C 504.58205999999996 517.1601799999999 504.57964 513.7126099999998 506.48933 513.3131399999999 C 509.95203 512.5888199999998 512.60256 517.0127399999999 515.98183 518.0593899999999 C 520.6388099999999 519.5017799999999 525.68382 519.13218 530.47038 520.0578099999999 C 533.50407 520.64447 536.37725 522.4603799999999 539.4632799999999 522.3060399999999 C 554.22078 521.5679899999999 566.4544299999999 506.10265999999996 581.1803199999999 507.31787999999995 C 587.6446699999999 507.85133999999994 592.4753099999999 513.69941 598.1668999999999 516.8103799999999 C 602.9720199999999 519.4368099999999 608.5378199999999 520.9442199999999 612.65545 524.5542599999999 C 616.73866 528.1341299999999 617.7769999999999 534.5715499999999 622.1479499999999 537.7937999999999 C 627.4466299999999 541.6999799999999 634.38614 545.09868 640.8831499999999 544.03887 C 650.8599799999998 542.41142 656.4111199999999 530.94579 665.1140099999999 525.80327 C 670.5367399999999 522.59899 677.1654999999998 521.63575 682.35039 518.05939 C 684.28909 516.72214 685.30293 514.2341700000001 687.3464399999999 513.06334 C 689.06378 512.07939 691.6060899999999 512.87211 693.0918999999999 511.56452 C 698.6170899999998 506.70205000000004 696.8662999999999 496.92866000000004 701.3353899999998 491.08070000000004 C 707.6150499999999 482.86354000000006 719.6202599999998 480.43317 726.0658499999998 472.34551000000005 C 731.2455999999999 465.84616000000005 729.6762399999999 454.62289000000004 736.3077599999998 449.61347000000006 C 768.5524899999998 425.25594000000007 841.1293199999998 381.68250000000006 842.4738899999998 378.9193200000001 C 843.9634799999998 375.85811000000007 849.3573199999997 379.8073600000001 853.9648099999997 390.1604400000001 C 853.9648099999997 390.1604400000001 860.5576299999997 384.9464100000001 863.7071099999997 382.1667500000001 C 867.0632699999998 379.2046700000001 869.5414999999997 375.1071600000001 873.4494099999997 372.9240500000001 C 879.3916399999997 369.60449000000006 887.3327999999997 371.15600000000006 893.1838199999997 367.67820000000006 C 899.4566799999998 363.94966000000005 908.2614499999997 353.9543300000001 916.4154699999997 358.93510000000003 C 927.2913899999996 365.5785 927.2583199999997 381.25680000000006 927.9063899999996 390.90984000000003 C 928.2882899999996 396.59828000000005 926.7513899999997 402.25791000000004 925.9079699999996 407.89642000000003 C 925.3570799999997 411.57929 925.1956099999996 415.39303 923.9095499999996 418.88774 C 921.9058899999997 424.33244 917.4409199999997 426.45411 910.4202099999997 429.12965 C 908.5416599999996 429.84555 908.4211299999996 434.42398000000003 903.9253399999997 433.8759 C 899.0570699999996 433.28241 892.4380199999997 429.28153 892.6842199999996 424.3834 C 892.9255399999996 419.58232 899.2266999999996 421.79033 897.9300699999997 419.88695 C 896.0551099999997 417.13462000000004 899.5946199999996 414.57576 898.6794799999997 413.39208 C 896.8343299999997 411.00547 892.1020199999997 409.43954 888.4375699999997 409.39524 C 880.3779599999997 409.29784 865.7055299999997 417.63873 865.7055299999997 417.63873 C 867.5379899999997 424.46599000000003 873.4996299999997 426.47589 871.2011899999998 438.12254 C 853.3960199999998 457.1469 850.4764099999998 450.02373 843.2232899999998 458.85616 C 843.2232899999998 458.85616 823.2699199999998 484.60925 812.2477699999998 496.57635999999997 C 797.0083799999999 513.12226 779.1526699999998 527.11145 763.7860499999998 543.53926 C 749.6200999999999 558.68348 738.2954099999998 576.40314 723.5678299999998 591.00176 C 710.2566599999999 604.19637 688.5344799999998 610.11121 680.3519699999998 626.97334 C 669.5362399999998 649.2619 637.6272299999998 677.5801 635.6372899999998 674.68565 C 632.6525799999998 683.62112 629.7233799999998 692.66761 627.3938099999998 702.91335 C 627.3938099999998 702.91335 634.7629999999998 718.10558 634.1384799999998 726.145 C 631.8506599999998 755.59596 608.6586099999998 775.60592 608.6586099999998 775.60592 C 608.6586099999998 775.60592 599.3359099999998 808.68214 594.1700599999998 825.06684 C 590.3378499999998 837.22159 584.6819499999998 848.84439 581.9297299999998 861.28823 C 580.2835299999998 868.73132 581.4249199999998 876.66251 579.4316999999999 884.02027 C 577.8820299999999 889.74072 573.9567999999998 894.60109 572.1874199999999 900.25744 C 569.9105199999999 907.5362299999999 569.3512999999998 915.24465 567.9407799999999 922.73968 C 566.9379999999999 928.06813 565.0580399999999 933.30628 564.94315 938.7270500000001 C 564.3685499999999 965.83887 563.5451599999999 1024.7585000000001 562.1953199999999 1025.6584 C 540.6240499999999 1026.5451 519.98894 1025.0915 499.74465999999995 1022.6607 z" stroke-linecap="round" />
</g>
</svg>