<?xml version="1.0" encoding="UTF-8" standalone="no" ?>
<!DOCTYPE svg PUBLIC "-//W3C//DTD SVG 1.1//EN" "http://www.w3.org/Graphics/SVG/1.1/DTD/svg11.dtd">
<svg xmlns="http://www.w3.org/2000/svg" xmlns:xlink="http://www.w3.org/1999/xlink" version="1.1" width="100%" height="100%" viewBox="0 0 1080 1080" xml:space="preserve">
<desc>Created with Fabric.js 5.2.4</desc>
<defs>
</defs>
<rect x="0" y="0" width="100%" height="100%" fill="transparent"></rect>
<g transform="matrix(1 0 0 1 108 108)" id="e66dafed-4d43-4320-b24a-c1e83bb4e5df"  >
<rect style="stroke: none; stroke-width: 1; stroke-dasharray: none; stroke-linecap: butt; stroke-dashoffset: 0; stroke-linejoin: miter; stroke-miterlimit: 4; fill: rgb(255,255,255); fill-rule: nonzero; opacity: 1; visibility: hidden;" vector-effect="non-scaling-stroke"  x="-108" y="-108" rx="0" ry="0" width="1080" height="1080" />
</g>
<g transform="matrix(1 0 0 1 108 108)" id="4247ae5f-9394-444c-8514-27b61c1d2bcf"  >
</g>
<g transform="matrix(2.64 0 0 2.64 538.56 538.56)"  >
<g style="" vector-effect="non-scaling-stroke"   >
		<g transform="matrix(1.3 0 0 -1.3 -12.99 0)"  >
<path style="stroke: none; stroke-width: 1; stroke-dasharray: none; stroke-linecap: butt; stroke-dashoffset: 0; stroke-linejoin: miter; stroke-miterlimit: 4; fill: rgb(0,0,0); fill-rule: nonzero; opacity: 1;" vector-effect="non-scaling-stroke"  transform=" translate(-145, -165)" d="M 0 165 L 0 10 L 105 10 L 210 10 L 210 15 L 210 20 L 170 20 L 130 20 L 130 50 L 130 80 L 105 80 L 80 80 L 80 60 L 80 40 L 60 40 L 40 40 L 40 35 L 40 30 L 65 30 L 90 30 L 90 50 L 90 70 L 105 70 L 120 70 L 120 45 L 120 20 L 115 20 L 110 20 L 110 40 L 110 60 L 105 60 L 100 60 L 100 40 L 100 20 L 55 20 L 10 20 L 10 35 L 10 50 L 15 50 L 20 50 L 20 40 L 20 30 L 25 30 L 30 30 L 30 40 L 30 50 L 50 50 L 70 50 L 70 70 L 70 90 L 105 90 L 140 90 L 140 80 L 140 70 L 150 70 L 160 70 L 160 60 L 160 50 L 180 50 L 200 50 L 200 45 L 200 40 L 175 40 L 150 40 L 150 50 L 150 60 L 145 60 L 140 60 L 140 45 L 140 30 L 175 30 L 210 30 L 210 70 L 210 110 L 230 110 L 250 110 L 250 120 L 250 130 L 265 130 L 280 130 L 280 105 L 280 80 L 275 80 L 270 80 L 270 100 L 270 120 L 265 120 L 260 120 L 260 110 L 260 100 L 240 100 L 220 100 L 220 95 L 220 90 L 240 90 L 260 90 L 260 80 L 260 70 L 275 70 L 290 70 L 290 105 L 290 140 L 270 140 L 250 140 L 250 155 L 250 170 L 260 170 L 270 170 L 270 175 L 270 180 L 255 180 L 240 180 L 240 150 L 240 120 L 215 120 L 190 120 L 190 135 L 190 150 L 200 150 L 210 150 L 210 155 L 210 160 L 195 160 L 180 160 L 180 135 L 180 110 L 190 110 L 200 110 L 200 85 L 200 60 L 185 60 L 170 60 L 170 70 L 170 80 L 160 80 L 150 80 L 150 90 L 150 100 L 140 100 L 130 100 L 130 115 L 130 130 L 140 130 L 150 130 L 150 135 L 150 140 L 125 140 L 100 140 L 100 135 L 100 130 L 110 130 L 120 130 L 120 115 L 120 100 L 80 100 L 40 100 L 40 95 L 40 90 L 50 90 L 60 90 L 60 75 L 60 60 L 35 60 L 10 60 L 10 105 L 10 150 L 30 150 L 50 150 L 50 170 L 50 190 L 55 190 L 60 190 L 60 165 L 60 140 L 40 140 L 20 140 L 20 105 L 20 70 L 35 70 L 50 70 L 50 75 L 50 80 L 40 80 L 30 80 L 30 95 L 30 110 L 70 110 L 110 110 L 110 115 L 110 120 L 100 120 L 90 120 L 90 135 L 90 150 L 125 150 L 160 150 L 160 135 L 160 120 L 150 120 L 140 120 L 140 115 L 140 110 L 150 110 L 160 110 L 160 100 L 160 90 L 170 90 L 180 90 L 180 80 L 180 70 L 185 70 L 190 70 L 190 85 L 190 100 L 180 100 L 170 100 L 170 135 L 170 170 L 195 170 L 220 170 L 220 155 L 220 140 L 210 140 L 200 140 L 200 135 L 200 130 L 215 130 L 230 130 L 230 160 L 230 190 L 255 190 L 280 190 L 280 175 L 280 160 L 270 160 L 260 160 L 260 155 L 260 150 L 275 150 L 290 150 L 290 175 L 290 200 L 280 200 L 270 200 L 270 250 L 270 300 L 245 300 L 220 300 L 220 295 L 220 290 L 240 290 L 260 290 L 260 265 L 260 240 L 245 240 L 230 240 L 230 250 L 230 260 L 225 260 L 220 260 L 220 250 L 220 240 L 210 240 L 200 240 L 200 235 L 200 230 L 220 230 L 240 230 L 240 220 L 240 210 L 245 210 L 250 210 L 250 220 L 250 230 L 255 230 L 260 230 L 260 215 L 260 200 L 230 200 L 200 200 L 200 195 L 200 190 L 210 190 L 220 190 L 220 185 L 220 180 L 195 180 L 170 180 L 170 190 L 170 200 L 165 200 L 160 200 L 160 180 L 160 160 L 125 160 L 90 160 L 90 180 L 90 200 L 85 200 L 80 200 L 80 160 L 80 120 L 55 120 L 30 120 L 30 125 L 30 130 L 50 130 L 70 130 L 70 165 L 70 200 L 60 200 L 50 200 L 50 245 L 50 290 L 75 290 L 100 290 L 100 275 L 100 260 L 90 260 L 80 260 L 80 245 L 80 230 L 125 230 L 170 230 L 170 245 L 170 260 L 145 260 L 120 260 L 120 255 L 120 250 L 140 250 L 160 250 L 160 245 L 160 240 L 125 240 L 90 240 L 90 245 L 90 250 L 100 250 L 110 250 L 110 270 L 110 290 L 130 290 L 150 290 L 150 295 L 150 300 L 95 300 L 40 300 L 40 280 L 40 260 L 30 260 L 20 260 L 20 255 L 20 250 L 30 250 L 40 250 L 40 225 L 40 200 L 30 200 L 20 200 L 20 185 L 20 170 L 25 170 L 30 170 L 30 180 L 30 190 L 35 190 L 40 190 L 40 175 L 40 160 L 25 160 L 10 160 L 10 195 L 10 230 L 15 230 L 20 230 L 20 220 L 20 210 L 25 210 L 30 210 L 30 225 L 30 240 L 20 240 L 10 240 L 10 275 L 10 310 L 15 310 L 20 310 L 20 290 L 20 270 L 25 270 L 30 270 L 30 290 L 30 310 L 90 310 L 150 310 L 150 315 L 150 320 L 75 320 L 0 320 L 0 165 z" stroke-linecap="round" />
</g>
		<g transform="matrix(1.3 0 0 -1.3 38.98 0)"  >
<path style="stroke: none; stroke-width: 1; stroke-dasharray: none; stroke-linecap: butt; stroke-dashoffset: 0; stroke-linejoin: miter; stroke-miterlimit: 4; fill: rgb(0,0,0); fill-rule: nonzero; opacity: 1;" vector-effect="non-scaling-stroke"  transform=" translate(-185, -165)" d="M 160 315 L 160 310 L 180 310 L 200 310 L 200 285 L 200 260 L 195 260 L 190 260 L 190 270 L 190 280 L 180 280 L 170 280 L 170 285 L 170 290 L 180 290 L 190 290 L 190 295 L 190 300 L 175 300 L 160 300 L 160 290 L 160 280 L 140 280 L 120 280 L 120 275 L 120 270 L 150 270 L 180 270 L 180 245 L 180 220 L 160 220 L 140 220 L 140 200 L 140 180 L 125 180 L 110 180 L 110 195 L 110 210 L 115 210 L 120 210 L 120 200 L 120 190 L 125 190 L 130 190 L 130 205 L 130 220 L 100 220 L 70 220 L 70 245 L 70 270 L 80 270 L 90 270 L 90 275 L 90 280 L 75 280 L 60 280 L 60 245 L 60 210 L 80 210 L 100 210 L 100 190 L 100 170 L 125 170 L 150 170 L 150 190 L 150 210 L 165 210 L 180 210 L 180 200 L 180 190 L 185 190 L 190 190 L 190 200 L 190 210 L 210 210 L 230 210 L 230 215 L 230 220 L 210 220 L 190 220 L 190 235 L 190 250 L 200 250 L 210 250 L 210 260 L 210 270 L 225 270 L 240 270 L 240 260 L 240 250 L 245 250 L 250 250 L 250 265 L 250 280 L 230 280 L 210 280 L 210 295 L 210 310 L 255 310 L 300 310 L 300 265 L 300 220 L 295 220 L 290 220 L 290 260 L 290 300 L 285 300 L 280 300 L 280 255 L 280 210 L 290 210 L 300 210 L 300 135 L 300 60 L 275 60 L 250 60 L 250 70 L 250 80 L 235 80 L 220 80 L 220 55 L 220 30 L 225 30 L 230 30 L 230 50 L 230 70 L 235 70 L 240 70 L 240 60 L 240 50 L 260 50 L 280 50 L 280 40 L 280 30 L 285 30 L 290 30 L 290 40 L 290 50 L 295 50 L 300 50 L 300 35 L 300 20 L 275 20 L 250 20 L 250 25 L 250 30 L 260 30 L 270 30 L 270 35 L 270 40 L 255 40 L 240 40 L 240 30 L 240 20 L 230 20 L 220 20 L 220 15 L 220 10 L 265 10 L 310 10 L 310 165 L 310 320 L 235 320 L 160 320 L 160 315 z" stroke-linecap="round" />
</g>
</g>
</g>
</svg>